<?xml version="1.0" standalone="no"?><!DOCTYPE svg PUBLIC "-//W3C//DTD SVG 1.1//EN" "http://www.w3.org/Graphics/SVG/1.1/DTD/svg11.dtd"><svg t="1524035482314" class="icon" style="" viewBox="0 0 1024 1024" version="1.1" xmlns="http://www.w3.org/2000/svg" p-id="1400" xmlns:xlink="http://www.w3.org/1999/xlink" width="200" height="200"><defs><style type="text/css"></style></defs><path d="M846.4 512c91.776-90.816 142.752-184.768 103.456-252.8s-146.144-70.88-270.656-36.8C646.4 97.536 590.56 6.4 512 6.4s-134.4 91.136-167.2 216C220.288 188.32 113.408 191.168 74.144 259.2s11.68 161.984 103.456 252.8c-91.776 90.816-142.752 184.768-103.456 252.8s146.144 70.88 270.656 36.8c32.768 124.8 88.64 216 167.2 216s134.4-91.136 167.2-216c124.512 34.08 231.392 31.232 270.656-36.8s-11.68-161.984-103.456-252.8z m48-220.8c21.44 37.12-7.36 108.992-81.856 189.088a1135.648 1135.648 0 0 0-104.064-81.76 1135.36 1135.36 0 0 0-18.784-131.008c106.688-24.32 183.296-13.44 204.736 23.68zM592 650.56c-27.264 15.744-53.952 29.664-80 42.08-26.048-12.448-52.736-26.336-80-42.08s-52.672-32-76.448-48.256a1160.128 1160.128 0 0 1 0-180.64c23.776-16.32 49.184-32.48 76.448-48.256s53.952-29.664 80-42.08c26.048 12.448 52.736 26.336 80 42.08s52.672 32 76.448 48.256a1161.6 1161.6 0 0 1 0 180.672A1159.68 1159.68 0 0 1 592 650.56z m70.88 5.44a869.536 869.536 0 0 1-16.32 89.088 868.768 868.768 0 0 1-85.312-30.4c17.376-9.024 34.656-18.304 51.552-28.064s33.6-20.096 50.08-30.624z m-200.128 58.688a868.768 868.768 0 0 1-85.312 30.4 869.536 869.536 0 0 1-16.32-89.088c16.512 10.528 33.184 20.864 50.08 30.624s34.176 19.008 51.552 28.032z m-150.88-144A869.696 869.696 0 0 1 242.88 512a869.696 869.696 0 0 1 68.992-58.688C311.008 472.896 310.4 492.48 310.4 512s0.608 39.104 1.472 58.688z m49.248-202.688a869.6 869.6 0 0 1 16.32-89.088 869.216 869.216 0 0 1 85.312 30.4c-17.376 9.024-34.656 18.304-51.552 28.064s-33.6 20.096-50.08 30.624z m200.128-58.688a869.216 869.216 0 0 1 85.312-30.4 869.6 869.6 0 0 1 16.32 89.088c-16.512-10.528-33.184-20.864-50.08-30.624s-34.176-19.008-51.552-28.032z m150.88 144A869.696 869.696 0 0 1 781.12 512a869.696 869.696 0 0 1-68.992 58.688c0.864-19.584 1.472-39.168 1.472-58.688s-0.608-39.104-1.472-58.688zM512 70.4c42.848 0 90.688 60.8 122.848 165.44A1136 1136 0 0 0 512 285.088a1136 1136 0 0 0-122.848-49.248C421.312 131.2 469.152 70.4 512 70.4zM129.568 291.2c21.44-37.12 98.048-48 204.8-23.648a1135.36 1135.36 0 0 0-18.784 131.008A1135.648 1135.648 0 0 0 211.52 480.32c-74.592-80.16-103.392-152-81.952-189.12z m0 441.6c-21.44-37.12 7.36-108.96 81.856-189.088a1135.648 1135.648 0 0 0 104.064 81.76 1135.328 1135.328 0 0 0 18.784 131.008c-106.656 24.32-183.264 13.44-204.704-23.68zM512 953.6c-42.848 0-90.688-60.8-122.848-165.44A1136 1136 0 0 0 512 738.912a1136 1136 0 0 0 122.848 49.248c-32.16 104.64-80 165.44-122.848 165.44z m382.432-220.8c-21.44 37.12-98.048 48-204.8 23.68a1135.328 1135.328 0 0 0 18.784-131.008 1135.648 1135.648 0 0 0 104.064-81.76c74.592 80.128 103.392 151.968 81.952 189.088z" fill="#707070" p-id="1401"></path></svg>