<?xml version="1.0" standalone="no"?>
<!DOCTYPE svg PUBLIC "-//W3C//DTD SVG 1.1//EN" "http://www.w3.org/Graphics/SVG/1.1/DTD/svg11.dtd">
<svg t="1524556489184" class="icon" style="" viewBox="0 0 1024 1024" version="1.1" 
    xmlns="http://www.w3.org/2000/svg" p-id="2507" data-spm-anchor-id="a313x.7781069.0.i2" 
    xmlns:xlink="http://www.w3.org/1999/xlink" width="32" height="32">
    <defs>
        <style type="text/css"></style>
    </defs>
    <path d="M631.5 281.8H378.6c-24.9 0-45.2-20.2-45.2-45.2 0-24.9 20.2-45.2 45.2-45.2h252.9c24.9 0 45.2 20.2 45.2 45.2-0.1 25-20.3 45.2-45.2 45.2z" fill="#429BCF" p-id="2508" data-spm-anchor-id="a313x.7781069.0.i4" class="selected"></path>
    <path d="M911.7 920.6L623.8 446.2V281.8H386.2v164.4L98.4 920.6c-24.3 40.2 4.6 91.5 51.6 91.5h710.2c46.9 0 75.8-51.3 51.5-91.5z" fill="#D2EDF7" p-id="2509" data-spm-anchor-id="a313x.7781069.0.i1" class=""></path>
    <path d="M911.7 920.6L623.8 446.2V281.8H505.1v730.3h355c47 0 75.9-51.3 51.6-91.5z" fill="#83C6EF" p-id="2510" data-spm-anchor-id="a313x.7781069.0.i0" class="selected"></path>
    <path d="M840 894L739.3 728c-7.5-12.4-21-19.8-35.5-20.1-185.6-3.5-201.2 98.9-276.4 100-74.6 1-107.3-25-164.9-66.2l-92.3 152c-20 33 3.7 75.3 42.4 75.3h585.1c38.5 0.1 62.3-42.1 42.3-75z" fill="#FDC223" p-id="2511"></path>
    <path d="M431.1 659.3m-48.6 0a48.6 48.6 0 1 0 97.2 0 48.6 48.6 0 1 0-97.2 0Z" fill="#FFD858" p-id="2512"></path>
    <path d="M392.6 688.6c8.9 11.7 22.8 19.3 38.6 19.3 26.8 0 48.6-21.8 48.6-48.6 0-8.8-2.5-16.9-6.6-24-12.5 23.3-42 42.5-80.6 53.3z" fill="#FDC223" p-id="2513"></path>
    <path d="M416.1 625.8a12.9 5.7 0 1 0 25.8 0 12.9 5.7 0 1 0-25.8 0Z" fill="#FCE5BE" p-id="2514"></path>
    <path d="M511.9 116.8m-32.2 0a32.2 32.2 0 1 0 64.4 0 32.2 32.2 0 1 0-64.4 0Z" fill="#FFD858" p-id="2515"></path>
    <path d="M486.4 136.1c5.9 7.7 15.1 12.8 25.5 12.8 17.8 0 32.2-14.4 32.2-32.2 0-5.8-1.7-11.2-4.3-15.9-8.3 15.5-27.9 28.2-53.4 35.3z" fill="#FDC223" p-id="2516"></path>
    <path d="M502 94.6a8.5 3.8 0 1 0 17 0 8.5 3.8 0 1 0-17 0Z" fill="#FCE5BE" p-id="2517"></path>
    <path d="M468.8 42.1m-22.8 0a22.8 22.8 0 1 0 45.6 0 22.8 22.8 0 1 0-45.6 0Z" fill="#FFD858" p-id="2518"></path>
    <path d="M450.7 55.8c4.2 5.5 10.7 9.1 18.1 9.1 12.6 0 22.8-10.2 22.8-22.8 0-4.1-1.2-7.9-3.1-11.2-5.9 10.9-19.7 19.9-37.8 24.9z" fill="#FDC223" p-id="2519"></path>
    <path d="M461.8 26.4a6 2.7 0 1 0 12 0 6 2.7 0 1 0-12 0Z" fill="#FCE5BE" p-id="2520"></path>
    <path d="M585.5 42.1m-25.3 0a25.3 25.3 0 1 0 50.6 0 25.3 25.3 0 1 0-50.6 0Z" fill="#FFD858" p-id="2521"></path>
    <path d="M565.4 57.4c4.6 6.1 11.9 10.1 20.1 10.1 14 0 25.3-11.3 25.3-25.3 0-4.6-1.3-8.8-3.4-12.5-6.5 12.1-21.8 22.1-42 27.7z" fill="#FDC223" p-id="2522"></path>
    <path d="M577.7 24.6a6.7 3 0 1 0 13.4 0 6.7 3 0 1 0-13.4 0Z" fill="#FCE5BE" p-id="2523"></path>
    <path d="M528.4 452.3m-36.5 0a36.5 36.5 0 1 0 73 0 36.5 36.5 0 1 0-73 0Z" fill="#FFD858" p-id="2524"></path>
    <path d="M499.5 474.3c6.7 8.7 17.1 14.5 28.9 14.5 20.1 0 36.5-16.3 36.5-36.5 0-6.6-1.9-12.7-4.9-18-9.4 17.5-31.5 31.9-60.5 40z" fill="#FDC223" p-id="2525"></path>
    <path d="M517.2 427.2a9.7 4.3 0 1 0 19.4 0 9.7 4.3 0 1 0-19.4 0Z" fill="#FCE5BE" p-id="2526"></path>
    <path d="M797.1 823.3c-127.8 52.5-294.9 84.4-478 84.4-52 0-102.8-2.6-151.7-7.5-13.7 31.8 9 68.8 45.2 68.8h585.1c38.5 0 62.3-42.1 42.3-75.1l-42.9-70.6z" fill="#F9AB10" p-id="2527"></path>
    <path d="M637.1 191.5H505.3v90.3h131.8c21.8 0 39.5-17.7 39.5-39.5V231c0-21.8-17.7-39.5-39.5-39.5z" fill="#1A7FC0" p-id="2528" data-spm-anchor-id="a313x.7781069.0.i3" class="selected"></path>
</svg>